<svg width="674" height="450" viewBox="0 0 674 450" fill="none" xmlns="http://www.w3.org/2000/svg">
<path fill-rule="evenodd" clip-rule="evenodd" d="M0.107178 449.187C124.096 449.186 224.608 348.673 224.608 224.684C224.608 100.695 124.096 0.182447 0.107178 0.181152V449.187Z" fill="#181F60"/>
<path fill-rule="evenodd" clip-rule="evenodd" d="M224.609 449.187C348.598 449.186 449.11 348.673 449.11 224.684C449.11 100.695 348.598 0.182447 224.609 0.181152V449.187Z" fill="#181F60"/>
<path fill-rule="evenodd" clip-rule="evenodd" d="M449.109 449.187C573.098 449.186 673.61 348.673 673.61 224.684C673.61 100.695 573.098 0.182447 449.109 0.181152V449.187Z" fill="#181F60"/>
<path d="M673.609 19.3812C673.609 8.93115 665.159 0.181152 654.609 0.181152C643.959 0.181152 635.359 8.73115 635.359 19.3812C635.359 29.9312 643.959 38.5812 654.509 38.5812C665.059 38.5812 673.609 29.9312 673.609 19.3812ZM669.459 19.3812C669.459 27.7312 662.959 34.7312 654.509 34.7312C646.109 34.7312 639.509 27.6812 639.509 19.3812C639.509 10.9812 646.059 4.03115 654.559 4.03115C662.959 4.03115 669.459 11.0812 669.459 19.3812ZM664.409 21.4312H659.109C658.659 23.7812 657.309 25.7812 654.759 25.7812C650.959 25.7812 649.409 22.6812 649.409 19.2812C649.409 15.8811 650.909 12.6812 654.759 12.6812C657.059 12.6812 658.359 13.8812 658.959 16.0812H664.209C663.859 11.1312 659.409 8.08115 654.709 8.08115C648.209 8.08115 644.059 12.9312 644.059 19.2312C644.059 25.5812 647.959 30.3812 654.559 30.3812C660.109 30.3812 663.959 26.9812 664.409 21.4312Z" fill="#181F60"/>
</svg>
