<svg width="459" height="257" viewBox="0 0 459 257" fill="none" xmlns="http://www.w3.org/2000/svg">
<path fill-rule="evenodd" clip-rule="evenodd" d="M2 25.9059C2 12.703 12.703 2 25.9059 2H129.665C142.868 2 153.571 12.703 153.571 25.9059V120.426C153.571 125.459 151.983 130.363 149.033 134.44L69.4507 244.42C64.9551 250.632 57.752 254.311 50.0834 254.311H25.9058C12.703 254.311 2 243.608 2 230.405V25.9059ZM158.124 121.861C155.174 125.938 153.586 130.843 153.586 135.875V230.405C153.586 243.608 164.289 254.311 177.491 254.311H201.711C209.379 254.311 216.583 250.632 221.078 244.42L300.618 134.498C303.569 130.421 305.157 125.516 305.157 120.484V25.9059C305.157 12.703 294.454 2 281.251 2H257.066C249.398 2 242.195 5.67889 237.699 11.8916L158.124 121.861ZM305.429 128.624C305.429 128.96 305.538 129.288 305.739 129.558L391.684 244.708C396.196 250.754 403.298 254.315 410.842 254.315H433.094C446.297 254.315 457 243.612 457 230.41V25.9102C457 12.7073 446.297 2.00432 433.094 2.00432H408.895C401.227 2.00432 394.024 5.68319 389.528 11.8959L305.725 127.708C305.533 127.975 305.429 128.295 305.429 128.624V128.624Z" stroke="#3D65F2" stroke-width="4"/>
</svg>
