<svg width="62" height="59" viewBox="0 0 62 59" fill="none" xmlns="http://www.w3.org/2000/svg">
<path d="M59.9075 21.5482C57.6456 16.7905 55.007 12.2218 52.0184 7.88305L51.0546 6.49776C49.8679 4.77584 48.3118 3.3397 46.5003 2.29347C44.6888 1.24724 42.6678 0.618777 40.5826 0.452882L38.8897 0.316049C33.638 -0.105349 28.362 -0.105349 23.1103 0.316049L21.4174 0.452882C19.3322 0.619988 17.3112 1.24845 15.4997 2.29347C13.6882 3.33849 12.1321 4.77463 10.9455 6.49776L9.98156 7.89516C6.99303 12.2327 4.35445 16.8026 2.09246 21.5603L1.36349 23.0921C0.466202 24.9812 0 27.0458 0 29.137C0 31.2283 0.466202 33.2929 1.36349 35.1819L2.09246 36.7137C4.35445 41.4714 6.99303 46.0402 9.98156 50.3789L10.9455 51.7775C12.1321 53.4994 13.6882 54.9355 15.4997 55.9818C17.3112 57.028 19.3322 57.6565 21.4174 57.8223L23.1103 57.9592C28.362 58.3806 33.638 58.3806 38.8897 57.9592L40.5826 57.8223C42.669 57.654 44.6912 57.0219 46.5027 55.9733C48.3143 54.9246 49.8691 53.4849 51.0546 51.7593L52.0184 50.3607C55.007 46.0232 57.6456 41.4532 59.9075 36.6955L60.6365 35.1637C61.5338 33.2747 62 31.2101 62 29.1188C62 27.0276 61.5338 24.963 60.6365 23.074L59.9075 21.5482Z" fill="#3D65F2"/>
</svg>
