<svg width="100" height="113" viewBox="0 0 100 113" fill="none" xmlns="http://www.w3.org/2000/svg">
<path d="M62.6494 51.4418L70.8947 37.4514L93.1185 72.066L93.129 78.7086L93.0565 32.9972C93.0039 31.8799 92.4105 30.8576 91.4639 30.2549L51.4527 7.23979C50.5168 6.77988 49.3298 6.78476 48.3957 7.25408C48.2695 7.31749 48.1507 7.38613 48.0375 7.46104L47.8981 7.54884L9.06072 30.0549L8.90986 30.1232C8.71614 30.2124 8.52033 30.3256 8.33636 30.4573C7.60016 30.9855 7.11098 31.7663 6.9528 32.6422C6.92911 32.775 6.91168 32.9101 6.90332 33.0464L6.96429 70.2967L27.6648 38.212C30.271 33.9575 35.9495 32.5872 41.2207 32.6617L47.4076 32.8251L10.9547 91.2851L15.2518 93.7592L52.1415 32.8844L68.4467 32.8251L31.6521 95.2361L46.9853 104.055L48.8172 105.109C49.5921 105.424 50.5057 105.44 51.2872 105.158L91.8607 81.6447L84.1036 86.1396L62.6494 51.4418ZM65.7953 96.7496L50.3085 72.4433L59.7621 56.4015L80.101 88.459L65.7953 96.7496Z" fill="#2D374B"/>
<path d="M50.3081 72.4437L65.7949 96.75L80.1009 88.4594L59.7621 56.4019L50.3081 72.4437Z" fill="#28A0F0"/>
<path d="M93.129 78.7088L93.1185 72.0662L70.8947 37.4517L62.6494 51.442L84.1036 86.1399L91.8607 81.6449C92.6217 81.0272 93.0819 80.1203 93.1304 79.1416L93.129 78.7088Z" fill="#28A0F0"/>
<path d="M0.000350884 84.9734L10.9546 91.2854L47.4074 32.8255L41.2206 32.662C35.9494 32.5875 30.2712 33.9578 27.6647 38.2123L6.96417 70.2971L0 80.9973V84.9734H0.000350884Z" fill="white"/>
<path d="M68.4466 32.8257L52.1417 32.8849L15.252 93.7597L28.1458 101.184L31.6523 95.2367L68.4466 32.8257Z" fill="white"/>
<path d="M100 32.7413C99.8638 29.3314 98.0175 26.2095 95.1253 24.3922L54.5897 1.08131C51.7288 -0.359392 48.1548 -0.361135 45.2894 1.08027C44.9507 1.25099 5.86909 23.9169 5.86909 23.9169C5.32835 24.1762 4.80746 24.4852 4.31724 24.8357C1.73546 26.6862 0.161666 29.5613 0 32.7204V80.9975L6.96417 70.2972L6.90319 33.0469C6.91155 32.9107 6.92863 32.7769 6.95267 32.6445C7.10981 31.7678 7.59933 30.986 8.33624 30.4578C8.5202 30.3261 48.2691 7.31799 48.3955 7.25458C49.33 6.78526 50.517 6.78038 51.4525 7.24029L91.4638 30.2554C92.4104 30.8581 93.0038 31.8804 93.0564 32.9978V79.1418C93.008 80.1205 92.6212 81.0271 91.8603 81.6452L84.1031 86.1401L80.1008 88.4596L65.7948 96.7501L51.2867 105.158C50.5052 105.44 49.5917 105.425 48.8168 105.109L31.6516 95.2366L28.1452 101.183L43.571 110.065C44.0811 110.355 44.5358 110.612 44.9086 110.822C45.4863 111.146 45.8796 111.362 46.0186 111.429C47.1151 111.962 48.6924 112.272 50.1139 112.272C51.4174 112.272 52.688 112.032 53.8908 111.561L96.0301 87.1572C98.4488 85.2834 99.8718 82.4574 100 79.3958V32.7413Z" fill="#96BEDC"/>
</svg>
