<?xml version="1.0" encoding="UTF-8" standalone="no"?>
<svg
   x="0px"
   y="0px"
   viewBox="0 0 90.1 90"
   xmlSpace="preserve"
   version="1.1"
   id="svg4"
   sodipodi:docname="near-icon-wht.svg"
   inkscape:version="1.2.2 (b0a84865, 2022-12-01)"
   xmlns:inkscape="http://www.inkscape.org/namespaces/inkscape"
   xmlns:sodipodi="http://sodipodi.sourceforge.net/DTD/sodipodi-0.dtd"
   xmlns="http://www.w3.org/2000/svg"
   xmlns:svg="http://www.w3.org/2000/svg">
  <defs
     id="defs8" />
  <sodipodi:namedview
     id="namedview6"
     pagecolor="#ffffff"
     bordercolor="#000000"
     borderopacity="0.25"
     inkscape:showpageshadow="2"
     inkscape:pageopacity="0.0"
     inkscape:pagecheckerboard="0"
     inkscape:deskcolor="#d1d1d1"
     showgrid="false"
     inkscape:zoom="2.6222222"
     inkscape:cx="17.733051"
     inkscape:cy="45"
     inkscape:window-width="1512"
     inkscape:window-height="824"
     inkscape:window-x="0"
     inkscape:window-y="38"
     inkscape:window-maximized="1"
     inkscape:current-layer="svg4" />
  <path
     d="M72.2,4.6L53.4,32.5c-1.3,1.9,1.2,4.2,3,2.6L74.9,19c0.5-0.4,1.2-0.1,1.2,0.6v50.3c0,0.7-0.9,1-1.3,0.5l-56-67         C17,1.2,14.4,0,11.5,0h-2C4.3,0,0,4.3,0,9.6v70.8C0,85.7,4.3,90,9.6,90c3.3,0,6.4-1.7,8.2-4.6l18.8-27.9c1.3-1.9-1.2-4.2-3-2.6         l-18.5,16c-0.5,0.4-1.2,0.1-1.2-0.6V20.1c0-0.7,0.9-1,1.3-0.5l56,67c1.8,2.2,4.5,3.4,7.3,3.4h2c5.3,0,9.6-4.3,9.6-9.6V9.6         c0-5.3-4.3-9.6-9.6-9.6C77.1,0,74,1.7,72.2,4.6z"
     id="path2"
     style="fill:#ffffff" />
</svg>
